<svg xmlns="http://www.w3.org/2000/svg" width="812" height="728" viewBox="0 0 812 728">
<polygon points="535.77,582.42 536.91,583.09 538.03,583.78 539.15,584.49 540.25,585.22 541.33,585.96 542.41,586.73 543.47,587.52 544.52,588.32 545.55,589.14 546.57,589.98 547.58,590.84 548.56,591.71 549.54,592.61 550.5,593.52 551.44,594.44 552.36,595.38 553.27,596.34 554.17,597.31 555.04,598.3 555.9,599.31 556.74,600.33 557.56,601.36 558.37,602.41 559.15,603.47 559.92,604.54 560.67,605.63 561.4,606.73 562.11,607.85 562.8,608.97 563.47,610.11 564.12,611.26 564.75,612.42 565.36,613.59 565.95,614.77 566.52,615.97 567.07,617.17 567.6,618.38 568.11,619.6 568.59,620.83 569.05,622.06 569.5,623.31 569.92,624.56 570.31,625.82 570.69,627.09 571.04,628.36 571.38,629.64 571.69,630.92 571.97,632.21 572.24,633.5 572.48,634.8 572.7,636.1 572.9,637.41 573.07,638.72 573.22,640.03 573.35,641.35 573.45,642.66 573.54,643.98 573.6,645.3 573.63,646.62 573.64,647.94 724.83,648 724.79,644.03 724.68,640.07 724.5,636.12 724.25,632.16 723.94,628.21 723.55,624.27 723.1,620.34 722.58,616.41 721.99,612.49 721.33,608.58 720.61,604.69 719.81,600.81 718.95,596.94 718.02,593.09 717.03,589.25 715.96,585.43 714.84,581.63 713.64,577.86 712.38,574.1 711.05,570.36 709.66,566.65 708.21,562.97 706.69,559.31 705.11,555.67 703.46,552.07 701.75,548.49 699.98,544.95 698.15,541.43 696.26,537.95 694.3,534.5 692.29,531.09 690.22,527.71 688.09,524.37 685.9,521.06 683.65,517.8 681.35,514.57 678.99,511.39 676.58,508.24 674.11,505.14 671.59,502.09 669.02,499.07 666.39,496.1 663.71,493.18 660.99,490.31 658.21,487.48 655.38,484.7 652.51,481.98 649.59,479.3 646.62,476.67 643.61,474.1 640.55,471.58 637.45,469.11 634.31,466.7 631.12,464.34 627.9,462.04 624.63,459.8 621.33,457.61 617.99,455.48 614.61,453.41 611.2,451.4" fill="none" stroke="#000000ff" stroke-width="3" stroke-linejoin="miter" stroke-linecap="butt"/>
<polyline points="498.05,647.93 731.25,513.16 717.58,509.5 731.25,513.16 727.59,526.82" fill="none" stroke="#000000ff" stroke-width="3" stroke-linejoin="miter" stroke-linecap="butt"/>
<text transform="translate(628.89 572.3) rotate(0)" x="0" y="0" text-anchor="middle" dominant-baseline="central" font-family="PT Sans" font-size="12" font-weight="bold">ALT 3280 FT AMSL</text>
<text transform="translate(628.89 572.3) rotate(0)" x="0" y="-12" text-anchor="middle" dominant-baseline="central" font-family="PT Sans" font-size="12" font-weight="bold">RG 3000</text>
<text transform="translate(573.48 516.91) rotate(0)" x="0" y="0" text-anchor="middle" dominant-baseline="central" font-family="PT Sans" font-size="12" font-weight="bold">30</text>
<text transform="translate(649.23 647.96) rotate(0)" x="0" y="0" text-anchor="middle" dominant-baseline="central" font-family="PT Sans" font-size="12" font-weight="bold">90</text>
</svg>
