<svg xmlns="http://www.w3.org/2000/svg" width="809" height="610" viewBox="0 0 809 610">
<polyline points="271.24,518.16 290.61,522.26" fill="none" stroke="#00ff00ff" stroke-width="3" stroke-linejoin="miter" stroke-linecap="butt"/>
<polyline points="278.87,529.89 282.97,510.53" fill="none" stroke="#00ff00ff" stroke-width="3" stroke-linejoin="miter" stroke-linecap="butt"/>
<polyline points="291.36,505.08 310.73,509.18" fill="none" stroke="#00ff00ff" stroke-width="3" stroke-linejoin="miter" stroke-linecap="butt"/>
<polyline points="298.99,516.81 303.09,497.44" fill="none" stroke="#00ff00ff" stroke-width="3" stroke-linejoin="miter" stroke-linecap="butt"/>
<polyline points="311.48,491.99 330.85,496.1" fill="none" stroke="#00ff00ff" stroke-width="3" stroke-linejoin="miter" stroke-linecap="butt"/>
<polyline points="319.11,503.73 323.22,484.36" fill="none" stroke="#00ff00ff" stroke-width="3" stroke-linejoin="miter" stroke-linecap="butt"/>
<polyline points="331.6,478.91 350.97,483.02" fill="none" stroke="#00ff00ff" stroke-width="3" stroke-linejoin="miter" stroke-linecap="butt"/>
<polyline points="339.23,490.65 343.34,471.28" fill="none" stroke="#00ff00ff" stroke-width="3" stroke-linejoin="miter" stroke-linecap="butt"/>
<polyline points="351.72,465.83 371.09,469.93" fill="none" stroke="#00ff00ff" stroke-width="3" stroke-linejoin="miter" stroke-linecap="butt"/>
<polyline points="359.35,477.56 363.46,458.2" fill="none" stroke="#00ff00ff" stroke-width="3" stroke-linejoin="miter" stroke-linecap="butt"/>
<polyline points="371.84,452.75 391.21,456.85" fill="none" stroke="#00ff00ff" stroke-width="3" stroke-linejoin="miter" stroke-linecap="butt"/>
<polyline points="379.47,464.48 383.58,445.11" fill="none" stroke="#00ff00ff" stroke-width="3" stroke-linejoin="miter" stroke-linecap="butt"/>
<polyline points="391.96,439.66 411.33,443.77" fill="none" stroke="#00ff00ff" stroke-width="3" stroke-linejoin="miter" stroke-linecap="butt"/>
<polyline points="399.59,451.4 403.7,432.03" fill="none" stroke="#00ff00ff" stroke-width="3" stroke-linejoin="miter" stroke-linecap="butt"/>
<polyline points="412.08,426.58 431.45,430.69" fill="none" stroke="#00ff00ff" stroke-width="3" stroke-linejoin="miter" stroke-linecap="butt"/>
<polyline points="419.71,438.32 423.82,418.95" fill="none" stroke="#00ff00ff" stroke-width="3" stroke-linejoin="miter" stroke-linecap="butt"/>
<polyline points="440.07,429.39 446.34,448.17" fill="none" stroke="#00ff00ff" stroke-width="3" stroke-linejoin="miter" stroke-linecap="butt"/>
<polyline points="433.81,441.92 452.59,435.65" fill="none" stroke="#00ff00ff" stroke-width="3" stroke-linejoin="miter" stroke-linecap="butt"/>
<polyline points="461.54,440.12 467.81,458.9" fill="none" stroke="#00ff00ff" stroke-width="3" stroke-linejoin="miter" stroke-linecap="butt"/>
<polyline points="455.28,452.64 474.06,446.38" fill="none" stroke="#00ff00ff" stroke-width="3" stroke-linejoin="miter" stroke-linecap="butt"/>
<polyline points="483.01,450.85 489.28,469.63" fill="none" stroke="#00ff00ff" stroke-width="3" stroke-linejoin="miter" stroke-linecap="butt"/>
<polyline points="476.75,463.37 495.53,457.1" fill="none" stroke="#00ff00ff" stroke-width="3" stroke-linejoin="miter" stroke-linecap="butt"/>
<polyline points="504.48,461.57 510.74,480.36" fill="none" stroke="#00ff00ff" stroke-width="3" stroke-linejoin="miter" stroke-linecap="butt"/>
<polyline points="498.22,474.1 517,467.83" fill="none" stroke="#00ff00ff" stroke-width="3" stroke-linejoin="miter" stroke-linecap="butt"/>
<polyline points="525.95,472.3 532.21,491.08" fill="none" stroke="#00ff00ff" stroke-width="3" stroke-linejoin="miter" stroke-linecap="butt"/>
<polyline points="519.69,484.82 538.47,478.56" fill="none" stroke="#00ff00ff" stroke-width="3" stroke-linejoin="miter" stroke-linecap="butt"/>
<polyline points="547.42,483.03 553.68,501.81" fill="none" stroke="#00ff00ff" stroke-width="3" stroke-linejoin="miter" stroke-linecap="butt"/>
<polyline points="541.16,495.55 559.94,489.28" fill="none" stroke="#00ff00ff" stroke-width="3" stroke-linejoin="miter" stroke-linecap="butt"/>
<polyline points="568.89,493.75 575.15,512.54" fill="none" stroke="#00ff00ff" stroke-width="3" stroke-linejoin="miter" stroke-linecap="butt"/>
<polyline points="562.63,506.28 581.41,500.01" fill="none" stroke="#00ff00ff" stroke-width="3" stroke-linejoin="miter" stroke-linecap="butt"/>
<polyline points="583.58,490.68 602.59,496.19" fill="none" stroke="#00ff00ff" stroke-width="3" stroke-linejoin="miter" stroke-linecap="butt"/>
<polyline points="590.33,502.94 595.84,483.93" fill="none" stroke="#00ff00ff" stroke-width="3" stroke-linejoin="miter" stroke-linecap="butt"/>
<polyline points="604.6,479.11 623.62,484.62" fill="none" stroke="#00ff00ff" stroke-width="3" stroke-linejoin="miter" stroke-linecap="butt"/>
<polyline points="611.35,491.37 616.87,472.36" fill="none" stroke="#00ff00ff" stroke-width="3" stroke-linejoin="miter" stroke-linecap="butt"/>
<polyline points="625.63,467.53 644.64,473.05" fill="none" stroke="#00ff00ff" stroke-width="3" stroke-linejoin="miter" stroke-linecap="butt"/>
<polyline points="632.38,479.8 637.89,460.78" fill="none" stroke="#00ff00ff" stroke-width="3" stroke-linejoin="miter" stroke-linecap="butt"/>
<polyline points="646.65,455.96 665.67,461.48" fill="none" stroke="#00ff00ff" stroke-width="3" stroke-linejoin="miter" stroke-linecap="butt"/>
<polyline points="653.4,468.23 658.92,449.21" fill="none" stroke="#00ff00ff" stroke-width="3" stroke-linejoin="miter" stroke-linecap="butt"/>
<polyline points="667.68,444.39 686.7,449.91" fill="none" stroke="#00ff00ff" stroke-width="3" stroke-linejoin="miter" stroke-linecap="butt"/>
<polyline points="674.43,456.66 679.94,437.64" fill="none" stroke="#00ff00ff" stroke-width="3" stroke-linejoin="miter" stroke-linecap="butt"/>
<polyline points="688.71,432.82 707.72,438.33" fill="none" stroke="#00ff00ff" stroke-width="3" stroke-linejoin="miter" stroke-linecap="butt"/>
<polyline points="695.46,445.08 700.97,426.07" fill="none" stroke="#00ff00ff" stroke-width="3" stroke-linejoin="miter" stroke-linecap="butt"/>
<polyline points="709.73,421.25 728.75,426.76" fill="none" stroke="#00ff00ff" stroke-width="3" stroke-linejoin="miter" stroke-linecap="butt"/>
<polyline points="716.48,433.51 722,414.5" fill="none" stroke="#00ff00ff" stroke-width="3" stroke-linejoin="miter" stroke-linecap="butt"/>
</svg>
