<svg xmlns="http://www.w3.org/2000/svg" width="806" height="607" viewBox="0 0 806 607">
<polyline points="270.86,526.75 422.25,428.32 573.81,504.04 725.15,420.75" fill="none" stroke="#ff8000ff" stroke-width="3" stroke-linejoin="miter" stroke-linecap="butt"/>
<polyline points="275.05,524.03 276.52,517.11" fill="none" stroke="#ff8000ff" stroke-width="3" stroke-linejoin="miter" stroke-linecap="butt"/>
<polyline points="279.24,521.3 286.16,522.77" fill="none" stroke="#ff8000ff" stroke-width="3" stroke-linejoin="miter" stroke-linecap="butt"/>
<polyline points="283.44,518.58 284.9,511.66" fill="none" stroke="#ff8000ff" stroke-width="3" stroke-linejoin="miter" stroke-linecap="butt"/>
<polyline points="287.63,515.85 294.55,517.32" fill="none" stroke="#ff8000ff" stroke-width="3" stroke-linejoin="miter" stroke-linecap="butt"/>
<polyline points="291.82,513.12 293.29,506.21" fill="none" stroke="#ff8000ff" stroke-width="3" stroke-linejoin="miter" stroke-linecap="butt"/>
<polyline points="296.01,510.4 302.93,511.87" fill="none" stroke="#ff8000ff" stroke-width="3" stroke-linejoin="miter" stroke-linecap="butt"/>
<polyline points="300.2,507.67 301.67,500.76" fill="none" stroke="#ff8000ff" stroke-width="3" stroke-linejoin="miter" stroke-linecap="butt"/>
<polyline points="304.4,504.95 311.31,506.41" fill="none" stroke="#ff8000ff" stroke-width="3" stroke-linejoin="miter" stroke-linecap="butt"/>
<polyline points="308.59,502.22 310.05,495.3" fill="none" stroke="#ff8000ff" stroke-width="3" stroke-linejoin="miter" stroke-linecap="butt"/>
<polyline points="312.78,499.5 319.7,500.96" fill="none" stroke="#ff8000ff" stroke-width="3" stroke-linejoin="miter" stroke-linecap="butt"/>
<polyline points="316.97,496.77 318.44,489.85" fill="none" stroke="#ff8000ff" stroke-width="3" stroke-linejoin="miter" stroke-linecap="butt"/>
<polyline points="321.16,494.05 328.08,495.51" fill="none" stroke="#ff8000ff" stroke-width="3" stroke-linejoin="miter" stroke-linecap="butt"/>
<polyline points="325.35,491.32 326.82,484.4" fill="none" stroke="#ff8000ff" stroke-width="3" stroke-linejoin="miter" stroke-linecap="butt"/>
<polyline points="329.55,488.59 336.46,490.06" fill="none" stroke="#ff8000ff" stroke-width="3" stroke-linejoin="miter" stroke-linecap="butt"/>
<polyline points="333.74,485.87 335.2,478.95" fill="none" stroke="#ff8000ff" stroke-width="3" stroke-linejoin="miter" stroke-linecap="butt"/>
<polyline points="337.93,483.14 344.85,484.61" fill="none" stroke="#ff8000ff" stroke-width="3" stroke-linejoin="miter" stroke-linecap="butt"/>
<polyline points="342.12,480.42 343.59,473.5" fill="none" stroke="#ff8000ff" stroke-width="3" stroke-linejoin="miter" stroke-linecap="butt"/>
<polyline points="346.31,477.69 353.23,479.16" fill="none" stroke="#ff8000ff" stroke-width="3" stroke-linejoin="miter" stroke-linecap="butt"/>
<polyline points="350.51,474.97 351.97,468.05" fill="none" stroke="#ff8000ff" stroke-width="3" stroke-linejoin="miter" stroke-linecap="butt"/>
<polyline points="354.7,472.24 361.61,473.71" fill="none" stroke="#ff8000ff" stroke-width="3" stroke-linejoin="miter" stroke-linecap="butt"/>
<polyline points="358.89,469.52 360.36,462.6" fill="none" stroke="#ff8000ff" stroke-width="3" stroke-linejoin="miter" stroke-linecap="butt"/>
<polyline points="363.08,466.79 370,468.26" fill="none" stroke="#ff8000ff" stroke-width="3" stroke-linejoin="miter" stroke-linecap="butt"/>
<polyline points="367.27,464.06 368.74,457.15" fill="none" stroke="#ff8000ff" stroke-width="3" stroke-linejoin="miter" stroke-linecap="butt"/>
<polyline points="371.46,461.34 378.38,462.81" fill="none" stroke="#ff8000ff" stroke-width="3" stroke-linejoin="miter" stroke-linecap="butt"/>
<polyline points="375.66,458.61 377.12,451.7" fill="none" stroke="#ff8000ff" stroke-width="3" stroke-linejoin="miter" stroke-linecap="butt"/>
<polyline points="379.85,455.89 386.77,457.35" fill="none" stroke="#ff8000ff" stroke-width="3" stroke-linejoin="miter" stroke-linecap="butt"/>
<polyline points="384.04,453.16 385.51,446.25" fill="none" stroke="#ff8000ff" stroke-width="3" stroke-linejoin="miter" stroke-linecap="butt"/>
<polyline points="388.23,450.44 395.15,451.9" fill="none" stroke="#ff8000ff" stroke-width="3" stroke-linejoin="miter" stroke-linecap="butt"/>
<polyline points="392.42,447.71 393.89,440.79" fill="none" stroke="#ff8000ff" stroke-width="3" stroke-linejoin="miter" stroke-linecap="butt"/>
<polyline points="396.62,444.99 403.53,446.45" fill="none" stroke="#ff8000ff" stroke-width="3" stroke-linejoin="miter" stroke-linecap="butt"/>
<polyline points="400.81,442.26 402.27,435.34" fill="none" stroke="#ff8000ff" stroke-width="3" stroke-linejoin="miter" stroke-linecap="butt"/>
<polyline points="405,439.54 411.92,441" fill="none" stroke="#ff8000ff" stroke-width="3" stroke-linejoin="miter" stroke-linecap="butt"/>
<polyline points="409.19,436.81 410.66,429.89" fill="none" stroke="#ff8000ff" stroke-width="3" stroke-linejoin="miter" stroke-linecap="butt"/>
<polyline points="413.38,434.08 420.3,435.55" fill="none" stroke="#ff8000ff" stroke-width="3" stroke-linejoin="miter" stroke-linecap="butt"/>
<polyline points="426.73,430.55 433.43,428.31" fill="none" stroke="#ff8000ff" stroke-width="3" stroke-linejoin="miter" stroke-linecap="butt"/>
<polyline points="431.2,432.79 433.44,439.49" fill="none" stroke="#ff8000ff" stroke-width="3" stroke-linejoin="miter" stroke-linecap="butt"/>
<polyline points="435.67,435.02 442.38,432.78" fill="none" stroke="#ff8000ff" stroke-width="3" stroke-linejoin="miter" stroke-linecap="butt"/>
<polyline points="440.14,437.26 442.38,443.96" fill="none" stroke="#ff8000ff" stroke-width="3" stroke-linejoin="miter" stroke-linecap="butt"/>
<polyline points="444.62,439.49 451.32,437.25" fill="none" stroke="#ff8000ff" stroke-width="3" stroke-linejoin="miter" stroke-linecap="butt"/>
<polyline points="449.09,441.73 451.33,448.43" fill="none" stroke="#ff8000ff" stroke-width="3" stroke-linejoin="miter" stroke-linecap="butt"/>
<polyline points="453.56,443.96 460.27,441.72" fill="none" stroke="#ff8000ff" stroke-width="3" stroke-linejoin="miter" stroke-linecap="butt"/>
<polyline points="458.04,446.19 460.27,452.9" fill="none" stroke="#ff8000ff" stroke-width="3" stroke-linejoin="miter" stroke-linecap="butt"/>
<polyline points="462.51,448.43 469.22,446.19" fill="none" stroke="#ff8000ff" stroke-width="3" stroke-linejoin="miter" stroke-linecap="butt"/>
<polyline points="466.98,450.66 469.22,457.37" fill="none" stroke="#ff8000ff" stroke-width="3" stroke-linejoin="miter" stroke-linecap="butt"/>
<polyline points="471.45,452.9 478.16,450.66" fill="none" stroke="#ff8000ff" stroke-width="3" stroke-linejoin="miter" stroke-linecap="butt"/>
<polyline points="475.93,455.13 478.16,461.84" fill="none" stroke="#ff8000ff" stroke-width="3" stroke-linejoin="miter" stroke-linecap="butt"/>
<polyline points="480.4,457.37 487.11,455.13" fill="none" stroke="#ff8000ff" stroke-width="3" stroke-linejoin="miter" stroke-linecap="butt"/>
<polyline points="484.87,459.6 487.11,466.31" fill="none" stroke="#ff8000ff" stroke-width="3" stroke-linejoin="miter" stroke-linecap="butt"/>
<polyline points="489.34,461.84 496.05,459.6" fill="none" stroke="#ff8000ff" stroke-width="3" stroke-linejoin="miter" stroke-linecap="butt"/>
<polyline points="493.82,464.07 496.06,470.78" fill="none" stroke="#ff8000ff" stroke-width="3" stroke-linejoin="miter" stroke-linecap="butt"/>
<polyline points="498.29,466.31 505,464.07" fill="none" stroke="#ff8000ff" stroke-width="3" stroke-linejoin="miter" stroke-linecap="butt"/>
<polyline points="502.76,468.54 505,475.25" fill="none" stroke="#ff8000ff" stroke-width="3" stroke-linejoin="miter" stroke-linecap="butt"/>
<polyline points="507.24,470.78 513.94,468.54" fill="none" stroke="#ff8000ff" stroke-width="3" stroke-linejoin="miter" stroke-linecap="butt"/>
<polyline points="511.71,473.01 513.95,479.72" fill="none" stroke="#ff8000ff" stroke-width="3" stroke-linejoin="miter" stroke-linecap="butt"/>
<polyline points="516.18,475.25 522.89,473.01" fill="none" stroke="#ff8000ff" stroke-width="3" stroke-linejoin="miter" stroke-linecap="butt"/>
<polyline points="520.65,477.48 522.89,484.19" fill="none" stroke="#ff8000ff" stroke-width="3" stroke-linejoin="miter" stroke-linecap="butt"/>
<polyline points="525.13,479.72 531.83,477.48" fill="none" stroke="#ff8000ff" stroke-width="3" stroke-linejoin="miter" stroke-linecap="butt"/>
<polyline points="529.6,481.95 531.84,488.66" fill="none" stroke="#ff8000ff" stroke-width="3" stroke-linejoin="miter" stroke-linecap="butt"/>
<polyline points="534.07,484.19 540.78,481.95" fill="none" stroke="#ff8000ff" stroke-width="3" stroke-linejoin="miter" stroke-linecap="butt"/>
<polyline points="538.55,486.42 540.78,493.13" fill="none" stroke="#ff8000ff" stroke-width="3" stroke-linejoin="miter" stroke-linecap="butt"/>
<polyline points="543.02,488.65 549.73,486.42" fill="none" stroke="#ff8000ff" stroke-width="3" stroke-linejoin="miter" stroke-linecap="butt"/>
<polyline points="547.49,490.89 549.73,497.6" fill="none" stroke="#ff8000ff" stroke-width="3" stroke-linejoin="miter" stroke-linecap="butt"/>
<polyline points="551.96,493.12 558.67,490.89" fill="none" stroke="#ff8000ff" stroke-width="3" stroke-linejoin="miter" stroke-linecap="butt"/>
<polyline points="556.44,495.36 558.67,502.07" fill="none" stroke="#ff8000ff" stroke-width="3" stroke-linejoin="miter" stroke-linecap="butt"/>
<polyline points="560.91,497.59 567.62,495.36" fill="none" stroke="#ff8000ff" stroke-width="3" stroke-linejoin="miter" stroke-linecap="butt"/>
<polyline points="565.38,499.83 567.62,506.54" fill="none" stroke="#ff8000ff" stroke-width="3" stroke-linejoin="miter" stroke-linecap="butt"/>
<polyline points="578.19,501.63 580.16,494.84" fill="none" stroke="#ff8000ff" stroke-width="3" stroke-linejoin="miter" stroke-linecap="butt"/>
<polyline points="582.57,499.22 589.37,501.19" fill="none" stroke="#ff8000ff" stroke-width="3" stroke-linejoin="miter" stroke-linecap="butt"/>
<polyline points="586.95,496.81 588.92,490.02" fill="none" stroke="#ff8000ff" stroke-width="3" stroke-linejoin="miter" stroke-linecap="butt"/>
<polyline points="591.33,494.4 598.13,496.37" fill="none" stroke="#ff8000ff" stroke-width="3" stroke-linejoin="miter" stroke-linecap="butt"/>
<polyline points="595.72,491.99 597.68,485.2" fill="none" stroke="#ff8000ff" stroke-width="3" stroke-linejoin="miter" stroke-linecap="butt"/>
<polyline points="600.1,489.58 606.89,491.55" fill="none" stroke="#ff8000ff" stroke-width="3" stroke-linejoin="miter" stroke-linecap="butt"/>
<polyline points="604.48,487.17 606.45,480.37" fill="none" stroke="#ff8000ff" stroke-width="3" stroke-linejoin="miter" stroke-linecap="butt"/>
<polyline points="608.86,484.75 615.65,486.72" fill="none" stroke="#ff8000ff" stroke-width="3" stroke-linejoin="miter" stroke-linecap="butt"/>
<polyline points="613.24,482.34 615.21,475.55" fill="none" stroke="#ff8000ff" stroke-width="3" stroke-linejoin="miter" stroke-linecap="butt"/>
<polyline points="617.62,479.93 624.41,481.9" fill="none" stroke="#ff8000ff" stroke-width="3" stroke-linejoin="miter" stroke-linecap="butt"/>
<polyline points="622,477.52 623.97,470.73" fill="none" stroke="#ff8000ff" stroke-width="3" stroke-linejoin="miter" stroke-linecap="butt"/>
<polyline points="626.38,475.11 633.17,477.08" fill="none" stroke="#ff8000ff" stroke-width="3" stroke-linejoin="miter" stroke-linecap="butt"/>
<polyline points="630.76,472.7 632.73,465.91" fill="none" stroke="#ff8000ff" stroke-width="3" stroke-linejoin="miter" stroke-linecap="butt"/>
<polyline points="635.14,470.29 641.93,472.26" fill="none" stroke="#ff8000ff" stroke-width="3" stroke-linejoin="miter" stroke-linecap="butt"/>
<polyline points="639.52,467.88 641.49,461.09" fill="none" stroke="#ff8000ff" stroke-width="3" stroke-linejoin="miter" stroke-linecap="butt"/>
<polyline points="643.9,465.47 650.69,467.44" fill="none" stroke="#ff8000ff" stroke-width="3" stroke-linejoin="miter" stroke-linecap="butt"/>
<polyline points="648.28,463.06 650.25,456.27" fill="none" stroke="#ff8000ff" stroke-width="3" stroke-linejoin="miter" stroke-linecap="butt"/>
<polyline points="652.66,460.65 659.45,462.62" fill="none" stroke="#ff8000ff" stroke-width="3" stroke-linejoin="miter" stroke-linecap="butt"/>
<polyline points="657.04,458.24 659.01,451.44" fill="none" stroke="#ff8000ff" stroke-width="3" stroke-linejoin="miter" stroke-linecap="butt"/>
<polyline points="661.42,455.83 668.21,457.79" fill="none" stroke="#ff8000ff" stroke-width="3" stroke-linejoin="miter" stroke-linecap="butt"/>
<polyline points="665.8,453.41 667.77,446.62" fill="none" stroke="#ff8000ff" stroke-width="3" stroke-linejoin="miter" stroke-linecap="butt"/>
<polyline points="670.18,451 676.97,452.97" fill="none" stroke="#ff8000ff" stroke-width="3" stroke-linejoin="miter" stroke-linecap="butt"/>
<polyline points="674.56,448.59 676.53,441.8" fill="none" stroke="#ff8000ff" stroke-width="3" stroke-linejoin="miter" stroke-linecap="butt"/>
<polyline points="678.94,446.18 685.73,448.15" fill="none" stroke="#ff8000ff" stroke-width="3" stroke-linejoin="miter" stroke-linecap="butt"/>
<polyline points="683.32,443.77 685.29,436.98" fill="none" stroke="#ff8000ff" stroke-width="3" stroke-linejoin="miter" stroke-linecap="butt"/>
<polyline points="687.7,441.36 694.5,443.33" fill="none" stroke="#ff8000ff" stroke-width="3" stroke-linejoin="miter" stroke-linecap="butt"/>
<polyline points="692.08,438.95 694.05,432.16" fill="none" stroke="#ff8000ff" stroke-width="3" stroke-linejoin="miter" stroke-linecap="butt"/>
<polyline points="696.47,436.54 703.26,438.51" fill="none" stroke="#ff8000ff" stroke-width="3" stroke-linejoin="miter" stroke-linecap="butt"/>
<polyline points="700.85,434.13 702.82,427.34" fill="none" stroke="#ff8000ff" stroke-width="3" stroke-linejoin="miter" stroke-linecap="butt"/>
<polyline points="705.23,431.72 712.02,433.69" fill="none" stroke="#ff8000ff" stroke-width="3" stroke-linejoin="miter" stroke-linecap="butt"/>
<polyline points="709.61,429.31 711.58,422.52" fill="none" stroke="#ff8000ff" stroke-width="3" stroke-linejoin="miter" stroke-linecap="butt"/>
<polyline points="713.99,426.9 720.78,428.87" fill="none" stroke="#ff8000ff" stroke-width="3" stroke-linejoin="miter" stroke-linecap="butt"/>
</svg>
