<svg xmlns="http://www.w3.org/2000/svg" width="806" height="607" viewBox="0 0 806 607">
<polygon points="354.05,471.03 356.65,493.36 337.43,482.16" fill="#a020f0ff" stroke="none"/>
<polygon points="505.87,469.97 487.98,483.41 487.97,461.06" fill="#a020f0ff" stroke="none"/>
<polygon points="657.63,456.54 658.57,479 640.23,466.41" fill="#a020f0ff" stroke="none"/>
<polygon points="317.13,496.67 317,498 317,502 316,505 314,508 311,510 308,510 305,510 301,508 300.36,507.57" fill="#a020f0ff" stroke="none"/>
<polygon points="392.87,447.42 393,449 393,453 392,456 390,459 387,461 384,461 381,461 377,459 376.11,458.32" fill="#a020f0ff" stroke="none"/>
<polygon points="467.13,450.74 465,454 462,456 459,456 456,456 453,455 450,452 449,449 449,445 449.24,441.8" fill="#a020f0ff" stroke="none"/>
<polygon points="543.14,488.72 541,492 538,494 535,494 532,494 529,493 526,490 525,487 525,483 525.25,479.78" fill="#a020f0ff" stroke="none"/>
<polygon points="619.5,478.89 620,481 620,484 619,488 617,490 614,492 610,492 607,492 604,490 601.98,488.54" fill="#a020f0ff" stroke="none"/>
<polygon points="695.55,437.04 696,439 696,442 695,446 693,448 690,450 686,450 683,450 680,448 678.03,446.69" fill="#a020f0ff" stroke="none"/>
<polyline points="695.55,437.04 696,439 696,442 695,446 693,448 690,450 686,450 683,450 680,448 678.03,446.69" fill="none" stroke="#a020f0ff" stroke-width="3" stroke-linejoin="miter" stroke-linecap="butt"/>
<polyline points="619.5,478.89 620,481 620,484 619,488 617,490 614,492 610,492 607,492 604,490 601.98,488.54" fill="none" stroke="#a020f0ff" stroke-width="3" stroke-linejoin="miter" stroke-linecap="butt"/>
<polyline points="543.14,488.72 541,492 538,494 535,494 532,494 529,493 526,490 525,487 525,483 525.25,479.78" fill="none" stroke="#a020f0ff" stroke-width="3" stroke-linejoin="miter" stroke-linecap="butt"/>
<polyline points="467.13,450.74 465,454 462,456 459,456 456,456 453,455 450,452 449,449 449,445 449.24,441.8" fill="none" stroke="#a020f0ff" stroke-width="3" stroke-linejoin="miter" stroke-linecap="butt"/>
<polyline points="392.87,447.42 393,449 393,453 392,456 390,459 387,461 384,461 381,461 377,459 376.11,458.32" fill="none" stroke="#a020f0ff" stroke-width="3" stroke-linejoin="miter" stroke-linecap="butt"/>
<polyline points="317.13,496.67 317,498 317,502 316,505 314,508 311,510 308,510 305,510 301,508 300.36,507.57" fill="none" stroke="#a020f0ff" stroke-width="3" stroke-linejoin="miter" stroke-linecap="butt"/>
<polyline points="657.63,456.54 658.57,479 640.23,466.41" fill="none" stroke="#a020f0ff" stroke-width="3" stroke-linejoin="miter" stroke-linecap="butt"/>
<polyline points="505.87,469.97 487.98,483.41 487.97,461.06" fill="none" stroke="#a020f0ff" stroke-width="3" stroke-linejoin="miter" stroke-linecap="butt"/>
<polyline points="354.05,471.03 356.65,493.36 337.43,482.16" fill="none" stroke="#a020f0ff" stroke-width="3" stroke-linejoin="miter" stroke-linecap="butt"/>
<polyline points="725.15,420.75 695,436" fill="none" stroke="#a020f0ff" stroke-width="3" stroke-linejoin="miter" stroke-linecap="butt"/>
<polyline points="573.81,504.04 602,487" fill="none" stroke="#a020f0ff" stroke-width="3" stroke-linejoin="miter" stroke-linecap="butt"/>
<polyline points="640.23,466.41 619,478" fill="none" stroke="#a020f0ff" stroke-width="3" stroke-linejoin="miter" stroke-linecap="butt"/>
<polyline points="664.52,452.89 671.42,449.23" fill="none" stroke="#a020f0ff" stroke-width="3" stroke-linejoin="miter" stroke-linecap="butt"/>
<polyline points="662.11,448.51 673.83,453.61" fill="none" stroke="#a020f0ff" stroke-width="3" stroke-linejoin="miter" stroke-linecap="butt"/>
<polyline points="573.81,504.04 543,489" fill="none" stroke="#a020f0ff" stroke-width="3" stroke-linejoin="miter" stroke-linecap="butt"/>
<polyline points="422.25,428.32 450,442" fill="none" stroke="#a020f0ff" stroke-width="3" stroke-linejoin="miter" stroke-linecap="butt"/>
<polyline points="487.97,461.06 467,451" fill="none" stroke="#a020f0ff" stroke-width="3" stroke-linejoin="miter" stroke-linecap="butt"/>
<polyline points="512.57,473.33 519.27,476.69" fill="none" stroke="#a020f0ff" stroke-width="3" stroke-linejoin="miter" stroke-linecap="butt"/>
<polyline points="514.81,468.86 517.04,481.17" fill="none" stroke="#a020f0ff" stroke-width="3" stroke-linejoin="miter" stroke-linecap="butt"/>
<polyline points="422.25,428.32 392,446" fill="none" stroke="#a020f0ff" stroke-width="3" stroke-linejoin="miter" stroke-linecap="butt"/>
<polyline points="270.86,526.75 299,506" fill="none" stroke="#a020f0ff" stroke-width="3" stroke-linejoin="miter" stroke-linecap="butt"/>
<polyline points="337.43,482.16 316,495" fill="none" stroke="#a020f0ff" stroke-width="3" stroke-linejoin="miter" stroke-linecap="butt"/>
<polyline points="361.17,466.57 368.3,462.11" fill="none" stroke="#a020f0ff" stroke-width="3" stroke-linejoin="miter" stroke-linecap="butt"/>
<polyline points="358.45,462.38 371.02,466.3" fill="none" stroke="#a020f0ff" stroke-width="3" stroke-linejoin="miter" stroke-linecap="butt"/>
</svg>
